/* XPM */
static char * fren32_xpm[] = {
"32 33 572 2",
"  	c None",
". 	c #A9D6A7",
"+ 	c #ADD9AA",
"@ 	c #AEDAAB",
"# 	c #AEDBAC",
"$ 	c #ACD9AA",
"% 	c #A9D5A6",
"& 	c #A8D4A6",
"* 	c #B0DCAD",
"= 	c #A4D1A2",
"- 	c #8DBB8B",
"; 	c #77A474",
"> 	c #679464",
", 	c #5F8B5B",
"' 	c #5F8B5C",
") 	c #679465",
"! 	c #78A575",
"~ 	c #8FBC8D",
"{ 	c #A6D3A4",
"] 	c #A7D4A5",
"^ 	c #A6D2A3",
"/ 	c #B1DDAE",
"( 	c #98C595",
"_ 	c #689565",
": 	c #416C3E",
"< 	c #2E552B",
"[ 	c #274D25",
"} 	c #21431F",
"| 	c #2D562A",
"1 	c #264923",
"2 	c #254922",
"3 	c #264B23",
"4 	c #30592D",
"5 	c #436E40",
"6 	c #6B9969",
"7 	c #9DCA9A",
"8 	c #ADD8AA",
"9 	c #A7D3A5",
"0 	c #6A9867",
"a 	c #376334",
"b 	c #20401D",
"c 	c #244522",
"d 	c #1F391C",
"e 	c #213E20",
"f 	c #1C341B",
"g 	c #2E522C",
"h 	c #2A4D28",
"i 	c #2A4B27",
"j 	c #2A4C28",
"k 	c #294A26",
"l 	c #1D391B",
"m 	c #284E25",
"n 	c #376134",
"o 	c #6F9D6D",
"p 	c #ABD7A8",
"q 	c #97C494",
"r 	c #477444",
"s 	c #21441F",
"t 	c #30562C",
"u 	c #2D4F2A",
"v 	c #284926",
"w 	c #274824",
"x 	c #264A24",
"y 	c #284E26",
"z 	c #2E582B",
"A 	c #2F5A2C",
"B 	c #2D572B",
"C 	c #2E562B",
"D 	c #294C26",
"E 	c #234121",
"F 	c #223E20",
"G 	c #203C1E",
"H 	c #2A5227",
"I 	c #4B7849",
"J 	c #9DCA9B",
"K 	c #91BD8E",
"L 	c #396637",
"M 	c #254923",
"N 	c #223F21",
"O 	c #2B4E29",
"P 	c #366233",
"Q 	c #2D552A",
"R 	c #416E3E",
"S 	c #5B8858",
"T 	c #6E9B6B",
"U 	c #73A070",
"V 	c #6A9667",
"W 	c #528050",
"X 	c #3B6838",
"Y 	c #2F5A2D",
"Z 	c #284A25",
"` 	c #264523",
" .	c #1F391D",
"..	c #244621",
"+.	c #3F6B3D",
"@.	c #99C596",
"#.	c #3B6839",
"$.	c #1E381D",
"%.	c #2D512A",
"&.	c #2A5328",
"*.	c #7DAA7A",
"=.	c #A3CFA0",
"-.	c #B4E0B1",
";.	c #9BC799",
">.	c #6E9A6B",
",.	c #3E6B3B",
"'.	c #2D542A",
").	c #233F21",
"!.	c #264524",
"~.	c #22421F",
"{.	c #416D3E",
"].	c #A0CC9D",
"^.	c #AAD7A8",
"/.	c #A5D2A3",
"(.	c #4A7747",
"_.	c #264A23",
":.	c #244122",
"<.	c #254423",
"[.	c #325D2F",
"}.	c #689666",
"|.	c #A8D4A5",
"1.	c #B5E1B2",
"2.	c #AFDBAC",
"3.	c #ADD9AB",
"4.	c #ACD8AA",
"5.	c #9BC899",
"6.	c #538151",
"7.	c #305B2D",
"8.	c #2C502A",
"9.	c #294A27",
"0.	c #20401E",
"a.	c #4F7B4D",
"b.	c #6C996A",
"c.	c #2C4F29",
"d.	c #335F2F",
"e.	c #AFDBAD",
"f.	c #AED9AC",
"g.	c #A9D3A5",
"h.	c #AFDAAD",
"i.	c #A9D3A7",
"j.	c #B0DCAE",
"k.	c #ACD8A9",
"l.	c #B2DEAF",
"m.	c #5E8B5B",
"n.	c #325F2F",
"o.	c #234021",
"p.	c #2B5529",
"q.	c #76A474",
"r.	c #9BC798",
"s.	c #386435",
"t.	c #213E1F",
"u.	c #274625",
"v.	c #325F30",
"w.	c #709C6D",
"x.	c #B0DCAF",
"y.	c #A2CD9D",
"z.	c #649549",
"A.	c #548933",
"B.	c #6C9C54",
"C.	c #6E9D58",
"D.	c #5F9440",
"E.	c #80AD6F",
"F.	c #ADDAAB",
"G.	c #ADDAAA",
"H.	c #538050",
"I.	c #284B26",
"J.	c #3A6437",
"K.	c #A2CF9F",
"L.	c #6A9868",
"M.	c #224520",
"N.	c #234122",
"O.	c #517E4F",
"P.	c #B0DCAC",
"Q.	c #ACD7AB",
"R.	c #65944E",
"S.	c #6E9155",
"T.	c #8AA777",
"U.	c #628B47",
"V.	c #477828",
"W.	c #457E20",
"X.	c #4B7C2C",
"Y.	c #7DA16F",
"Z.	c #ADD8AB",
"`.	c #9ECA9B",
" +	c #3F6D3C",
".+	c #2B4F29",
"++	c #213D1F",
"@+	c #244822",
"#+	c #74A172",
"$+	c #416D3F",
"%+	c #2B5029",
"&+	c #274825",
"*+	c #335E31",
"=+	c #92BF8F",
"-+	c #B4E0B0",
";+	c #B2DDB0",
">+	c #86B378",
",+	c #4A8323",
"'+	c #8FAE79",
")+	c #808083",
"!+	c #424244",
"~+	c #86947F",
"{+	c #8FAB81",
"]+	c #6E7A6B",
"^+	c #6C726B",
"/+	c #B3DCB1",
"(+	c #ACD9A9",
"_+	c #B6E2B3",
":+	c #315D2E",
"<+	c #284826",
"[+	c #497446",
"}+	c #AAD6A7",
"|+	c #8DBA8B",
"1+	c #2C5229",
"2+	c #558253",
"3+	c #B1DBB0",
"4+	c #71A159",
"5+	c #54902D",
"6+	c #528D2D",
"7+	c #416226",
"8+	c #344C23",
"9+	c #587145",
"0+	c #8C9A75",
"a+	c #585A44",
"b+	c #4F5837",
"c+	c #AAD2A5",
"d+	c #AEDBAB",
"e+	c #A2CE9F",
"f+	c #3F6C3D",
"g+	c #274A25",
"h+	c #234221",
"i+	c #325C30",
"j+	c #95C293",
"k+	c #74A171",
"l+	c #203A1E",
"m+	c #2C5329",
"n+	c #7CA979",
"o+	c #B1DDB2",
"p+	c #81AD6B",
"q+	c #558C20",
"r+	c #5A942A",
"s+	c #6D7A34",
"t+	c #6E6D36",
"u+	c #64682F",
"v+	c #616A28",
"w+	c #606C25",
"x+	c #888F5C",
"y+	c #AFD9AA",
"z+	c #B3DFB0",
"A+	c #5D8A5B",
"B+	c #2A5028",
"C+	c #1E381C",
"D+	c #244721",
"E+	c #7EAB7B",
"F+	c #628E5F",
"G+	c #254323",
"H+	c #356033",
"I+	c #95C292",
"J+	c #B6E2A8",
"K+	c #5C8ABC",
"L+	c #215089",
"M+	c #3D6E57",
"N+	c #407150",
"O+	c #41714E",
"P+	c #43744C",
"Q+	c #40744D",
"R+	c #295E77",
"S+	c #5687BA",
"T+	c #AEDAAA",
"U+	c #AFDBA8",
"V+	c #78A576",
"W+	c #2B5329",
"X+	c #264425",
"Y+	c #6A9768",
"Z+	c #ADD9A9",
"`+	c #527E4F",
" @	c #234921",
".@	c #264B24",
"+@	c #386336",
"@@	c #A0CD9F",
"#@	c #ADDAA9",
"$@	c #B3DCA2",
"%@	c #2A60DA",
"&@	c #003CFF",
"*@	c #0141F4",
"=@	c #0244F4",
"-@	c #0244F1",
";@	c #0342F0",
">@	c #0141F3",
",@	c #0041FF",
"'@	c #0038FF",
")@	c #4B7BC8",
"!@	c #B4DFA4",
"~@	c #86B284",
"{@	c #2D592A",
"]@	c #21411F",
"^@	c #183716",
"/@	c #649062",
"(@	c #496D47",
"_@	c #496B47",
":@	c #588355",
"<@	c #B1DDA8",
"[@	c #A0C9A7",
"}@	c #1147D8",
"|@	c #0042F4",
"1@	c #0442ED",
"2@	c #0047FF",
"3@	c #0046FC",
"4@	c #0046FD",
"5@	c #0146FA",
"6@	c #0045FC",
"7@	c #0743F1",
"8@	c #97C1AA",
"9@	c #B2DEA7",
"0@	c #B1DDAF",
"a@	c #537F50",
"b@	c #4F754D",
"c@	c #4B7349",
"d@	c #6B9769",
"e@	c #97C394",
"f@	c #B4E1B1",
"g@	c #B5E2B2",
"h@	c #A1CD9E",
"i@	c #B5E1A7",
"j@	c #82AFB2",
"k@	c #013AE4",
"l@	c #0040FE",
"m@	c #0541E9",
"n@	c #0147FB",
"o@	c #0146F9",
"p@	c #0145F8",
"q@	c #0046FB",
"r@	c #003EF6",
"s@	c #83AFAF",
"t@	c #B5E0A7",
"u@	c #9AC698",
"v@	c #B3E1B0",
"w@	c #B2DFAF",
"x@	c #96C394",
"y@	c #A7D3A4",
"z@	c #94C091",
"A@	c #A0CC9E",
"B@	c #9FCB9C",
"C@	c #B7E3A5",
"D@	c #6E9CBB",
"E@	c #0033EC",
"F@	c #2A5B7E",
"G@	c #1148C7",
"H@	c #0046FF",
"I@	c #0044FF",
"J@	c #0143F8",
"K@	c #93BEAC",
"L@	c #99C597",
"M@	c #94C092",
"N@	c #94C191",
"O@	c #A9D6A6",
"P@	c #B0DCA8",
"Q@	c #9CC9AD",
"R@	c #3A59B8",
"S@	c #254D8E",
"T@	c #0244E5",
"U@	c #0042FF",
"V@	c #0042F8",
"W@	c #1341DA",
"X@	c #5D76AB",
"Y@	c #B0DEA8",
"Z@	c #96C193",
"`@	c #98C495",
" #	c #AFDBAB",
".#	c #9DC59A",
"+#	c #96C294",
"@#	c #AFE1AD",
"##	c #B09B6E",
"$#	c #9C6765",
"%#	c #766484",
"&#	c #615D93",
"*#	c #575A9B",
"=#	c #55589D",
"-#	c #5E5B95",
";#	c #846876",
">#	c #AB6E50",
",#	c #AFA170",
"'#	c #ACE0AF",
")#	c #A8D4A4",
"!#	c #8DB78C",
"~#	c #A0CB9D",
"{#	c #9AC697",
"]#	c #A5D1A3",
"^#	c #9DCB9A",
"/#	c #89AB86",
"(#	c #576E55",
"_#	c #7BA079",
":#	c #ADDCAC",
"<#	c #A8CA9E",
"[#	c #AC7750",
"}#	c #BB7647",
"|#	c #BE7A47",
"1#	c #C27744",
"2#	c #C27745",
"3#	c #BE7947",
"4#	c #B97347",
"5#	c #A97A56",
"6#	c #A8CDA1",
"7#	c #ACDBAC",
"8#	c #AFDAAB",
"9#	c #A0CD9D",
"0#	c #87AD85",
"a#	c #81A17E",
"b#	c #9FC79C",
"c#	c #86A883",
"d#	c #ABD6A8",
"e#	c #8AAF87",
"f#	c #97C294",
"g#	c #ABDDAD",
"h#	c #A19973",
"i#	c #A66D4A",
"j#	c #A67959",
"k#	c #A7A57F",
"l#	c #AAAF87",
"m#	c #A5B38C",
"n#	c #9F7655",
"o#	c #9D916C",
"p#	c #ACDDAE",
"q#	c #90BA8D",
"r#	c #799876",
"s#	c #6C896A",
"t#	c #8FB58D",
"u#	c #90B98D",
"v#	c #6F8D6E",
"w#	c #587057",
"x#	c #81A47F",
"y#	c #A8D5A5",
"z#	c #93C28E",
"A#	c #B2CFA6",
"B#	c #ACE1B0",
"C#	c #ACDEAF",
"D#	c #B1E2B3",
"E#	c #8BB582",
"F#	c #93C08D",
"G#	c #B5E2B4",
"H#	c #7A9B78",
"I#	c #7B9B78",
"J#	c #99BF96",
"K#	c #98C496",
"L#	c #A5D1A2",
"M#	c #AAD5A7",
"N#	c #81A37F",
"O#	c #7E9F7C",
"P#	c #708D6E",
"Q#	c #9DC99A",
"R#	c #A5D2A2",
"S#	c #A3CE9D",
"T#	c #7AA96C",
"U#	c #7EA677",
"V#	c #A9D1A5",
"W#	c #9BC794",
"X#	c #719F5D",
"Y#	c #82AA79",
"Z#	c #A9D4A9",
"`#	c #A3D0A0",
" $	c #88AE86",
".$	c #5B7359",
"+$	c #88AC86",
"@$	c #80A37E",
"#$	c #90BC8D",
"$$	c #A4D0A1",
"%$	c #85AE82",
"&$	c #9BC299",
"*$	c #6D896B",
"=$	c #82A27F",
"-$	c #89B187",
";$	c #A6D3A3",
">$	c #A9D5A5",
",$	c #9BC396",
"'$	c #A9D4A6",
")$	c #AFDAAC",
"!$	c #A2CE9C",
"~$	c #90B589",
"{$	c #A9D2A6",
"]$	c #A1CF9E",
"^$	c #94BD91",
"/$	c #7FA07D",
"($	c #546A52",
"_$	c #617B60",
":$	c #8AB588",
"<$	c #A9D5A7",
"[$	c #9ECB9A",
"}$	c #8BB58A",
"|$	c #84A581",
"1$	c #617B5F",
"2$	c #90B88E",
"3$	c #9ECB9B",
"4$	c #A7D4A4",
"5$	c #B0DDAE",
"6$	c #AEDAAC",
"7$	c #AAD8A8",
"8$	c #88AD86",
"9$	c #5D765B",
"0$	c #B0DDAC",
"a$	c #799877",
"b$	c #8CB689",
"c$	c #ABD8A8",
"d$	c #98C696",
"e$	c #89B286",
"f$	c #597057",
"g$	c #769473",
"h$	c #82A480",
"i$	c #9AC397",
"j$	c #8DB68B",
"k$	c #9FCC9D",
"l$	c #A7D5A5",
"m$	c #A4D1A1",
"n$	c #A5D3A2",
"o$	c #A1CE9E",
"p$	c #8FB78D",
"q$	c #80A27E",
"r$	c #A2CB9E",
"s$	c #5C745A",
"t$	c #759373",
"u$	c #8AB488",
"v$	c #9BC898",
"w$	c #98C596",
"x$	c #7DA47B",
"y$	c #6E8B6C",
"z$	c #84A882",
"A$	c #637D61",
"B$	c #7D9D7A",
"C$	c #7D9F7B",
"D$	c #96BF94",
"E$	c #94BE92",
"F$	c #8FB78C",
"G$	c #90B78E",
"H$	c #799A77",
"I$	c #8DB28B",
"J$	c #4F644D",
"K$	c #A1CA9E",
"L$	c #95BC93",
"M$	c #8DB88A",
"N$	c #9CC99A",
"O$	c #87B285",
"P$	c #779675",
"Q$	c #84A782",
"R$	c #566D54",
"S$	c #6B8869",
"T$	c #627B60",
"U$	c #789776",
"V$	c #729171",
"W$	c #7A9A78",
"X$	c #698467",
"Y$	c #7DA37B",
"Z$	c #8AB688",
"`$	c #A5D1A1",
" %	c #789E76",
".%	c #95C193",
"+%	c #85AB84",
"@%	c #648163",
"#%	c #5E775C",
"$%	c #6F8C6D",
"%%	c #88AD85",
"&%	c #90BA8E",
"*%	c #8CB78A",
"=%	c #A0CE9E",
"-%	c #8FBA8D",
";%	c #89B386",
">%	c #7BA179",
",%	c #779C75",
"'%	c #80A77D",
")%	c #7FA67C",
"!%	c #91BB8F",
"~%	c #AAD7A7",
"{%	c #A9D7A8",
"]%	c #ABD9A8",
"                        . + @ + + # $ %                         ",
"                  & * = - ; > , ' ) ! ~ { * ]                   ",
"              ^ / ( _ : < [ } | 1 2 3 4 5 6 7 / =               ",
"            8 9 0 a b c d e f g h i j k l m n o p p             ",
"          * q r s t u v w x y z A B C D E F G H I J @           ",
"        * K L M N O P Q R S T U U V W X Y Z `  ...+.( @         ",
"      + @.#.c $.%.&.r *.=.* -.-.-.-.# ;.>.,.'.).!.~.{.].^.      ",
"    /.& (._.:.<.[.}.|.1.2.3.@ 4.$ 3.+ * 1.5.6.7.8.9.0.a.+       ",
"    / b.m F c.d.! -.2.p e.f.g.h.f.i.j.3.k.l.+ m.n.O o.p.q.*     ",
"  |.r.s.t.u.v.w.1.+ k.x.y.z.A.B.C.D.E.F.G.k.* @ H.z n I.J.K.    ",
"  * L.M.N.Q O.P.@ k.F.Q.R.S.T.U.V.W.X.Y.Z.+ k.l.`. +.+++@+#+2.  ",
"  ^ $+%+&+*+=+-+k.k.;+>+,+'+)+!+~+{+]+^+/+(+k.k._+U :+<+l [+^.  ",
"}+|+1+j '.2+/ + k.k.3+4+5+6+7+8+9+0+a+b+c+d+k.k.* e+f+g+h+i+j+  ",
"F.k+[ l+m+n+-.k.k.k.o+p+q+r+s+t+u+v+w+x+y+$ k.k.+ z+A+B+C+D+E+k.",
"d+F+M G+H+I+/ k.k.k.J+K+L+M+N+O+P+Q+R+S+T+U+k.k.k.-.V+W+X+x Y+@ ",
"Z+`+ @.@+@@@2.k.k.#@$@%@&@*@=@-@;@>@,@'@)@!@Z+k.k.z+~@{@]@^@A+@ ",
". /@(@_@:@= 2.k.k.<@[@}@|@1@2@3@4@3@5@6@7@8@9@k.k.0@K a@b@c@d@p ",
"= e@f@g@].h@@ k.k.i@j@k@l@m@n@o@p@p@o@q@r@s@t@k.k.@ u@% v@w@x@^ ",
"y@z@+ 2.A@B@@ k.k.C@D@E@F@G@H@o@o@o@q@I@J@K@9@k.k.@ L@|.+ k.M@9 ",
"] N@}+@ O@r.@ k.k.P@Q@R@S@T@,@U@U@,@V@W@X@Y@Z+k.k.k.r.+ + |.Z@y@",
"{ `@=. #.#+#$ k.k.4.@###$#%#&#*#=#-#;#>#,#'#k.k.+ )#!#+ w@~#{#]#",
"  A@^#/#(#_#^ @ k.k.:#<#[#}#|#1#2#3#4#5#6#7#k.k.8#9#0#a#b#`@=.  ",
"  |.N@c#d#e#f#2.k.k.(+g#h#i#j#k#l#m#n#o#p#k.k.+ }+q#r#s#t#I+&   ",
"  y@`.u#v#w#x#y#@ k.k./ z#T.A#B#C#D#E#F#G#Z+k.2.7 H#I#J#K#`.L#  ",
"    M#N@N#O#P#Q#R#@ k.@ S#T#U#V#G.e.W#X#Y#Z#2.`# $.$+$@$#$p     ",
"    ]#$$%$&$*$=$-$;$@ @ @ >$,$'$(+k.)$!$~${$]$^$/$($_$:${       ",
"      <$[$}$|$O#1$2$3$4$+ )$5$@ @ + @ 6$7$9#8$9$0$a$b$B@%       ",
"        c$d$e$f$g$h$i$j$k$l$y@;$R#m$n$o$p$q$r$s$t$u$v$p         ",
"          4.w$x$y$@ z$A$B$C$D$E$F$G$H$I$B$J$K$L$M$N$p           ",
"            p `#O$L@9$P$Q$R$h$S$T$U$V$W$X$O#Y$Z$`$.             ",
"              ^ (++# %.%+%@%S$I$#%$%S$%%&%*%=%^.L#              ",
"                  ] G.o$-%:$;%>%,%'%)%!%`#~%^                   ",
"                        ] {%O@O@c$c$]%]                         "};
