/* XPM */
static char * fren16_xpm[] = {
"16 17 205 2",
"  	c None",
". 	c #A6D3A3",
"+ 	c #94C191",
"@ 	c #86B383",
"# 	c #86B283",
"$ 	c #94C192",
"% 	c #A7D4A4",
"& 	c #A8D5A6",
"* 	c #7EAB7C",
"= 	c #436940",
"- 	c #254523",
"; 	c #20431E",
"> 	c #234820",
", 	c #2A4E27",
"' 	c #446B42",
") 	c #81AE7E",
"! 	c #A9D6A6",
"~ 	c #5B8559",
"{ 	c #21441E",
"] 	c #22471F",
"^ 	c #345932",
"/ 	c #497146",
"( 	c #4B7548",
"_ 	c #355D32",
": 	c #1A3B18",
"< 	c #1E3D1B",
"[ 	c #60895D",
"} 	c #A8D4A4",
"| 	c #A9D6A7",
"1 	c #5F895C",
"2 	c #163614",
"3 	c #335B31",
"4 	c #7BA877",
"5 	c #B4E0B3",
"6 	c #B3DFB2",
"7 	c #A3D0A1",
"8 	c #729E6F",
"9 	c #2D522A",
"0 	c #1A3A17",
"a 	c #628B5F",
"b 	c #82AF80",
"c 	c #1E3F1B",
"d 	c #365D34",
"e 	c #97C494",
"f 	c #BAE6B9",
"g 	c #A1CE9B",
"h 	c #91C184",
"i 	c #92C186",
"j 	c #A8D6A1",
"k 	c #B9E6B7",
"l 	c #8CB989",
"m 	c #30582D",
"n 	c #244922",
"o 	c #87B384",
"p 	c #A7D5A5",
"q 	c #487045",
"r 	c #1F421D",
"s 	c #85B282",
"t 	c #B9E5B7",
"u 	c #A2D09D",
"v 	c #719A5A",
"w 	c #658055",
"x 	c #58823F",
"y 	c #709263",
"z 	c #ADD7AC",
"A 	c #B8E5B5",
"B 	c #75A272",
"C 	c #1D401B",
"D 	c #4B7148",
"E 	c #95C193",
"F 	c #284B25",
"G 	c #466E43",
"H 	c #AEDBAB",
"I 	c #B3DEB2",
"J 	c #92C081",
"K 	c #5B9125",
"L 	c #57652F",
"M 	c #727B49",
"N 	c #6F7549",
"O 	c #ABD3A2",
"P 	c #B0DDAE",
"Q 	c #A7D4A5",
"R 	c #375E35",
"S 	c #284A26",
"T 	c #99C596",
"U 	c #81AD7E",
"V 	c #143712",
"W 	c #638E61",
"X 	c #B5E1B2",
"Y 	c #B4E0A9",
"Z 	c #83B0AD",
"` 	c #295D86",
" .	c #3A6771",
"..	c #325D6C",
"+.	c #3E6A9F",
"@.	c #A2CDB0",
"#.	c #B0DCA8",
"$.	c #B3DFB0",
"%.	c #517B4F",
"&.	c #143412",
"*.	c #85B182",
"=.	c #89B586",
"-.	c #537A50",
";.	c #83AF81",
">.	c #B1DEAF",
",.	c #B8E3A3",
"'.	c #5586C8",
").	c #0034FF",
"!.	c #0043FF",
"~.	c #0038FF",
"{.	c #5386CD",
"].	c #B8E2A3",
"^.	c #B0DCAE",
"/.	c #7AA678",
"(.	c #547B51",
"_.	c #8CB889",
":.	c #A1CD9E",
"<.	c #B4E1B1",
"[.	c #A8D5A5",
"}.	c #ACD8A8",
"|.	c #B5E1A7",
"1.	c #4675C3",
"2.	c #023ECD",
"3.	c #0042FF",
"4.	c #0039FF",
"5.	c #5184CC",
"6.	c #B7E2A4",
"7.	c #ABD7A8",
"8.	c #A9D5A6",
"9.	c #B3E0B0",
"0.	c #A0CD9D",
"a.	c #A2CC9F",
"b.	c #95BE92",
"c.	c #AFDFAD",
"d.	c #9DB296",
"e.	c #6F5C7C",
"f.	c #5354A3",
"g.	c #5352A2",
"h.	c #735C83",
"i.	c #A4BB96",
"j.	c #9EC89B",
"k.	c #A6D1A3",
"l.	c #9FCB9D",
"m.	c #90B88D",
"n.	c #7C9D7A",
"o.	c #A1CC9F",
"p.	c #AFDDAE",
"q.	c #AED9A6",
"r.	c #AE8B5B",
"s.	c #B9945F",
"t.	c #B7A56F",
"u.	c #AB9260",
"v.	c #AFD8A8",
"w.	c #AFDCAD",
"x.	c #9EC99B",
"y.	c #7D9D7A",
"z.	c #95BE93",
"A.	c #9CC799",
"B.	c #769674",
"C.	c #88AC85",
"D.	c #ADDAAA",
"E.	c #B0DEAE",
"F.	c #92BE8B",
"G.	c #9BC799",
"H.	c #AEE2B3",
"I.	c #8EBD88",
"J.	c #9FCA99",
"K.	c #789976",
"L.	c #9ECA9C",
"M.	c #95C093",
"N.	c #779574",
"O.	c #84A882",
"P.	c #AAD7A7",
"Q.	c #AEDCAB",
"R.	c #B0DCAC",
"S.	c #ACD8A7",
"T.	c #A0CC9D",
"U.	c #789775",
"V.	c #88AF86",
"W.	c #A4D2A2",
"X.	c #A5D2A3",
"Y.	c #81A77F",
"Z.	c #81A27E",
"`.	c #82A580",
" +	c #8AAF87",
".+	c #99C296",
"++	c #94BC91",
"@+	c #90B78E",
"#+	c #7B9B79",
"$+	c #82A57F",
"%+	c #8FB88D",
"&+	c #A5D2A2",
"*+	c #A4D1A1",
"=+	c #98C395",
"-+	c #7FA47D",
";+	c #719170",
">+	c #708E6E",
",+	c #678466",
"'+	c #83A781",
")+	c #98C496",
"!+	c #A4D1A2",
"~+	c #95BF93",
"{+	c #92BB8F",
"]+	c #99C497",
"^+	c #A5D3A2",
"          . + @ # $ %           ",
"      & * = - ; > , ' ) !       ",
"    . ~ { ] ^ / ( _ : < [ }     ",
"  | 1 2 3 4 & 5 6 7 8 9 0 a     ",
"  b c d e f g h i j k l m n o   ",
"p q r s t u v w x y z A B C D   ",
"E F G H I J K L M N O P Q R S T ",
"U V W X Y Z `  ...+.@.#.$.%.&.*.",
"=.-.;.>.,.'.).!.!.~.{.].^./.(._.",
":.<.[.}.|.1.2.3.3.4.5.6.7.8.9.:.",
"0.a.b.7.c.d.e.f.g.h.i.c.[.j.k.l.",
"7 m.n.o.p.q.r.s.t.u.v.w.x.y.z.  ",
"  A.B.C.D.E.F.G.H.I.J.H K.n.L.  ",
"  7 M.N.O.P.Q.P.R.S.T.C.U.V.W.  ",
"    X.Y.Z.`. +.+++@+#+$+%+&+    ",
"      *+=+-+;+>+,+B.'+)+X.      ",
"          !+G.~+{+]+^+          "};
